<svg xmlns="http://www.w3.org/2000/svg" viewBox="0 0 800 1100" width="800" height="1100">
  <defs>
    <linearGradient id="topBar" x1="0%" y1="0%" x2="100%" y2="0%">
      <stop offset="0%" style="stop-color:#ff6b35"/>
      <stop offset="50%" style="stop-color:#2563eb"/>
      <stop offset="100%" style="stop-color:#10b981"/>
    </linearGradient>
  </defs>

  <!-- Background -->
  <rect width="800" height="1100" fill="#fafbfc"/>

  <!-- Top gradient bar -->
  <rect x="0" y="0" width="800" height="5" fill="url(#topBar)"/>

  <!-- Subtle background decoration -->
  <circle cx="700" cy="900" r="200" fill="#ff6b3505"/>
  <circle cx="100" cy="300" r="150" fill="#2563eb05"/>

  <!-- ===== TOP: AI Recommendations ===== -->
  <text x="400" y="75" text-anchor="middle" font-family="'PingFang SC','Microsoft YaHei','Noto Sans SC',sans-serif"
        font-size="18" font-weight="700" fill="#555566" letter-spacing="6">
    AI 推荐语精选
  </text>

  <!-- Decorative line under section title -->
  <rect x="330" y="88" width="140" height="2" rx="1" fill="#ff6b3530"/>

  <!-- === Quote 1: ChatGPT === -->
  <g transform="translate(80, 120)">
    <!-- Quote mark -->
    <text x="0" y="0" font-family="'Georgia','PingFang SC',serif" font-size="36" fill="#ff6b3520" font-weight="900">"</text>
    <!-- Quote text -->
    <text x="0" y="30" font-family="'PingFang SC','Microsoft YaHei','Noto Sans SC',sans-serif"
          font-size="16" fill="#3a3a4a" font-weight="500" letter-spacing="1">
      <tspan x="0" dy="0">真正让人改变的不是被告知正确答案，</tspan>
      <tspan x="0" dy="28">是被问到对的问题。</tspan>
    </text>
    <!-- AI name tag -->
    <rect x="0" y="50" width="68" height="22" rx="11" fill="#2563eb12"/>
    <text x="34" y="65" text-anchor="middle" font-family="'PingFang SC','Microsoft YaHei',sans-serif"
          font-size="11" fill="#2563eb" font-weight="600">ChatGPT</text>
  </g>

  <!-- === Quote 2: DeepSeek === -->
  <g transform="translate(80, 240)">
    <text x="0" y="0" font-family="'Georgia','PingFang SC',serif" font-size="36" fill="#2563eb20" font-weight="900">"</text>
    <text x="0" y="30" font-family="'PingFang SC','Microsoft YaHei','Noto Sans SC',sans-serif"
          font-size="16" fill="#3a3a4a" font-weight="500" letter-spacing="1">
      <tspan x="0" dy="0">它不是要你相信某个方法，</tspan>
      <tspan x="0" dy="28">它要你开始相信自己的大脑。</tspan>
    </text>
    <rect x="0" y="50" width="68" height="22" rx="11" fill="#ff6b3512"/>
    <text x="34" y="65" text-anchor="middle" font-family="'PingFang SC','Microsoft YaHei',sans-serif"
          font-size="11" fill="#ff6b35" font-weight="600">DeepSeek</text>
  </g>

  <!-- === Quote 3: Grok === -->
  <g transform="translate(80, 360)">
    <text x="0" y="0" font-family="'Georgia','PingFang SC',serif" font-size="36" fill="#10b98120" font-weight="900">"</text>
    <text x="0" y="30" font-family="'PingFang SC','Microsoft YaHei','Noto Sans SC',sans-serif"
          font-size="16" fill="#3a3a4a" font-weight="500" letter-spacing="1">
      <tspan x="0" dy="0">这不是一本需要信仰才能读完的书，</tspan>
      <tspan x="0" dy="28">这是一个工具箱。</tspan>
    </text>
    <rect x="0" y="50" width="68" height="22" rx="11" fill="#10b98112"/>
    <text x="34" y="65" text-anchor="middle" font-family="'PingFang SC','Microsoft YaHei',sans-serif"
          font-size="11" fill="#10b981" font-weight="600">Grok（xAI）</text>
  </g>

  <!-- Divider line -->
  <rect x="80" y="460" width="640" height="1" fill="#e0e0e8"/>

  <!-- ===== MIDDLE: Barcode Area ===== -->
  <g transform="translate(400, 540)">
    <text x="0" y="0" text-anchor="middle" font-family="'PingFang SC','Microsoft YaHei',sans-serif"
          font-size="13" fill="#999aaa" letter-spacing="2">条形码占位区</text>

    <!-- Barcode placeholder -->
    <rect x="-120" y="12" width="240" height="80" rx="3" fill="#ffffff" stroke="#d8d8e0" stroke-width="1"/>

    <!-- Fake barcode lines -->
    <g transform="translate(-100, 22)">
      <rect x="0" y="0" width="2" height="60" fill="#1a1a2e"/>
      <rect x="4" y="0" width="1" height="60" fill="#1a1a2e"/>
      <rect x="7" y="0" width="3" height="60" fill="#1a1a2e"/>
      <rect x="12" y="0" width="1" height="60" fill="#1a1a2e"/>
      <rect x="15" y="0" width="1" height="60" fill="#1a1a2e"/>
      <rect x="18" y="0" width="4" height="60" fill="#1a1a2e"/>
      <rect x="24" y="0" width="1" height="60" fill="#1a1a2e"/>
      <rect x="27" y="0" width="2" height="60" fill="#1a1a2e"/>
      <rect x="31" y="0" width="1" height="60" fill="#1a1a2e"/>
      <rect x="34" y="0" width="3" height="60" fill="#1a1a2e"/>
      <rect x="39" y="0" width="1" height="60" fill="#1a1a2e"/>
      <rect x="42" y="0" width="2" height="60" fill="#1a1a2e"/>
      <rect x="46" y="0" width="1" height="60" fill="#1a1a2e"/>
      <rect x="49" y="0" width="1" height="60" fill="#1a1a2e"/>
      <rect x="52" y="0" width="4" height="60" fill="#1a1a2e"/>
      <rect x="58" y="0" width="1" height="60" fill="#1a1a2e"/>
      <rect x="61" y="0" width="2" height="60" fill="#1a1a2e"/>
      <rect x="65" y="0" width="1" height="60" fill="#1a1a2e"/>
      <rect x="68" y="0" width="3" height="60" fill="#1a1a2e"/>
      <rect x="73" y="0" width="1" height="60" fill="#1a1a2e"/>
      <rect x="76" y="0" width="2" height="60" fill="#1a1a2e"/>
      <rect x="80" y="0" width="1" height="60" fill="#1a1a2e"/>
      <rect x="83" y="0" width="1" height="60" fill="#1a1a2e"/>
      <rect x="86" y="0" width="3" height="60" fill="#1a1a2e"/>
      <rect x="91" y="0" width="1" height="60" fill="#1a1a2e"/>
      <rect x="94" y="0" width="2" height="60" fill="#1a1a2e"/>
      <rect x="98" y="0" width="1" height="60" fill="#1a1a2e"/>
      <rect x="101" y="0" width="4" height="60" fill="#1a1a2e"/>
      <rect x="107" y="0" width="1" height="60" fill="#1a1a2e"/>
      <rect x="110" y="0" width="2" height="60" fill="#1a1a2e"/>
      <rect x="114" y="0" width="1" height="60" fill="#1a1a2e"/>
      <rect x="117" y="0" width="3" height="60" fill="#1a1a2e"/>
      <rect x="122" y="0" width="1" height="60" fill="#1a1a2e"/>
      <rect x="125" y="0" width="2" height="60" fill="#1a1a2e"/>
      <rect x="129" y="0" width="1" height="60" fill="#1a1a2e"/>
      <rect x="132" y="0" width="1" height="60" fill="#1a1a2e"/>
      <rect x="135" y="0" width="4" height="60" fill="#1a1a2e"/>
      <rect x="141" y="0" width="1" height="60" fill="#1a1a2e"/>
      <rect x="144" y="0" width="2" height="60" fill="#1a1a2e"/>
      <rect x="148" y="0" width="1" height="60" fill="#1a1a2e"/>
      <rect x="151" y="0" width="3" height="60" fill="#1a1a2e"/>
      <rect x="156" y="0" width="1" height="60" fill="#1a1a2e"/>
      <rect x="159" y="0" width="2" height="60" fill="#1a1a2e"/>
      <rect x="163" y="0" width="1" height="60" fill="#1a1a2e"/>
      <rect x="166" y="0" width="1" height="60" fill="#1a1a2e"/>
      <rect x="169" y="0" width="3" height="60" fill="#1a1a2e"/>
      <rect x="174" y="0" width="1" height="60" fill="#1a1a2e"/>
      <rect x="177" y="0" width="2" height="60" fill="#1a1a2e"/>
      <rect x="181" y="0" width="1" height="60" fill="#1a1a2e"/>
      <rect x="184" y="0" width="4" height="60" fill="#1a1a2e"/>
      <rect x="190" y="0" width="1" height="60" fill="#1a1a2e"/>
      <rect x="193" y="0" width="2" height="60" fill="#1a1a2e"/>
      <rect x="197" y="0" width="1" height="60" fill="#1a1a2e"/>
    </g>

    <!-- ISBN placeholder -->
    <text x="0" y="110" text-anchor="middle" font-family="'Courier New',monospace"
          font-size="12" fill="#cccccc" letter-spacing="3">ISBN 978-×-××××-×××-×</text>
  </g>

  <!-- Divider line -->
  <rect x="80" y="660" width="640" height="1" fill="#e0e0e8"/>

  <!-- ===== BOTTOM: Book Description ===== -->

  <!-- Bottom text block -->
  <g transform="translate(80, 700)">
    <text font-family="'PingFang SC','Microsoft YaHei','Noto Sans SC',sans-serif"
          font-size="14" fill="#777788" font-weight="400" letter-spacing="0.5">
      <tspan x="0" dy="0">这不是一本需要信仰才能读完的书。</tspan>
      <tspan x="0" dy="26" fill="#888899">这是一个工具箱。</tspan>
      <tspan x="0" dy="36" fill="#999aaa" font-size="12">打开第一页的自测清单，</tspan>
      <tspan x="0" dy="24" fill="#999aaa" font-size="12">找到你现在最痛的那个入口，</tspan>
      <tspan x="0" dy="24" fill="#999aaa" font-size="12">直接翻过去。</tspan>
    </text>
  </g>

  <!-- ===== Bottom Stats ===== -->
  <!-- Stats badge -->
  <g transform="translate(620, 1020)">
    <rect x="0" y="0" width="160" height="48" rx="8" fill="url(#topBar)" opacity="0.08"/>
    <rect x="0" y="0" width="160" height="48" rx="8" fill="none" stroke="url(#topBar)" stroke-width="1.5" opacity="0.3"/>
    <text x="80" y="22" text-anchor="middle" font-family="'PingFang SC','Microsoft YaHei',sans-serif"
          font-size="14" font-weight="700" fill="#1a1a2e" letter-spacing="1">
      21章 | 67方法
    </text>
    <text x="80" y="40" text-anchor="middle" font-family="'PingFang SC','Microsoft YaHei',sans-serif"
          font-size="11" fill="#888899" letter-spacing="1">
      128教练问题 | 55张插图
    </text>
  </g>

  <!-- Bottom gradient bar -->
  <rect x="0" y="1095" width="800" height="5" fill="url(#topBar)"/>

  <!-- Side decorative dots (right) -->
  <g opacity="0.06">
    <circle cx="760" cy="200" r="6" fill="#ff6b35"/>
    <circle cx="760" cy="230" r="6" fill="#2563eb"/>
    <circle cx="760" cy="260" r="6" fill="#10b981"/>
    <circle cx="760" cy="290" r="6" fill="#ff6b35"/>
  </g>

</svg>