<svg xmlns="http://www.w3.org/2000/svg" viewBox="0 0 800 500">
  <defs>
    <style>
      text { font-family: 'Segoe UI', 'PingFang SC', 'Microsoft YaHei', sans-serif; }
    </style>
  </defs>
  <rect width="800" height="500" fill="#ffffff" rx="8"/>
  <rect x="4" y="4" width="792" height="492" fill="none" stroke="#e2e8f0" stroke-width="2" rx="6"/>
  
  <text x="780" y="28" font-size="10" fill="#94a3b8" text-anchor="end">📖 高效学习手册 · 番茄工作法</text>
  
  <text x="400" y="56" font-size="22" font-weight="bold" fill="#1e3a5f" text-anchor="middle">🍅 番茄钟记录卡</text>
  <text x="400" y="76" font-size="11" fill="#64748b" text-anchor="middle">25分钟专注 + 5分钟休息 = 1个番茄 🍅 ｜ 4个番茄后休息15-30分钟</text>
  
  <!-- 2列 x 4行 = 8个番茄钟 -->
  <g transform="translate(50,94)">
    <!-- Row 1 -->
    <rect x="0" y="0" width="340" height="76" fill="#fef2f2" stroke="#fecaca" rx="6"/>
    <rect x="18" y="16" width="24" height="24" fill="none" stroke="#dc2626" stroke-width="2" rx="4"/>
    <text x="60" y="35" font-size="14" font-weight="bold" fill="#dc2626">第 1 个 🍅</text>
    <text x="170" y="35" font-size="12" fill="#64748b">任务：_______________</text>
    <text x="60" y="58" font-size="12" fill="#9ca3af">□ 25分钟</text>
    <text x="170" y="58" font-size="12" fill="#dc2626">✓完成</text>
    <text x="250" y="58" font-size="12" fill="#9ca3af">/ ✗中断</text>
    
    <rect x="360" y="0" width="340" height="76" fill="#fef2f2" stroke="#fecaca" rx="6"/>
    <rect x="378" y="16" width="24" height="24" fill="none" stroke="#dc2626" stroke-width="2" rx="4"/>
    <text x="420" y="35" font-size="14" font-weight="bold" fill="#dc2626">第 2 个 🍅</text>
    <text x="530" y="35" font-size="12" fill="#64748b">任务：_______________</text>
    <text x="420" y="58" font-size="12" fill="#9ca3af">□ 25分钟</text>
    <text x="530" y="58" font-size="12" fill="#dc2626">✓完成</text>
    <text x="610" y="58" font-size="12" fill="#9ca3af">/ ✗中断</text>
    
    <!-- Row 2 -->
    <rect x="0" y="86" width="340" height="76" fill="#fff7ed" stroke="#fdba74" rx="6"/>
    <rect x="18" y="102" width="24" height="24" fill="none" stroke="#ea580c" stroke-width="2" rx="4"/>
    <text x="60" y="121" font-size="14" font-weight="bold" fill="#ea580c">第 3 个 🍅</text>
    <text x="170" y="121" font-size="12" fill="#64748b">任务：_______________</text>
    <text x="60" y="144" font-size="12" fill="#9ca3af">□ 25分钟</text>
    <text x="170" y="144" font-size="12" fill="#ea580c">✓完成</text>
    <text x="250" y="144" font-size="12" fill="#9ca3af">/ ✗中断</text>
    
    <rect x="360" y="86" width="340" height="76" fill="#fff7ed" stroke="#fdba74" rx="6"/>
    <rect x="378" y="102" width="24" height="24" fill="none" stroke="#ea580c" stroke-width="2" rx="4"/>
    <text x="420" y="121" font-size="14" font-weight="bold" fill="#ea580c">第 4 个 🍅</text>
    <text x="530" y="121" font-size="12" fill="#64748b">任务：_______________</text>
    <text x="420" y="144" font-size="12" fill="#9ca3af">□ 25分钟</text>
    <text x="530" y="144" font-size="12" fill="#ea580c">✓完成</text>
    <text x="610" y="144" font-size="12" fill="#9ca3af">/ ✗中断</text>
    
    <!-- Row 3 -->
    <rect x="0" y="172" width="340" height="76" fill="#f0fdf4" stroke="#86efac" rx="6"/>
    <rect x="18" y="188" width="24" height="24" fill="none" stroke="#16a34a" stroke-width="2" rx="4"/>
    <text x="60" y="207" font-size="14" font-weight="bold" fill="#16a34a">第 5 个 🍅</text>
    <text x="170" y="207" font-size="12" fill="#64748b">任务：_______________</text>
    <text x="60" y="230" font-size="12" fill="#9ca3af">□ 25分钟</text>
    <text x="170" y="230" font-size="12" fill="#16a34a">✓完成</text>
    <text x="250" y="230" font-size="12" fill="#9ca3af">/ ✗中断</text>
    
    <rect x="360" y="172" width="340" height="76" fill="#f0fdf4" stroke="#86efac" rx="6"/>
    <rect x="378" y="188" width="24" height="24" fill="none" stroke="#16a34a" stroke-width="2" rx="4"/>
    <text x="420" y="207" font-size="14" font-weight="bold" fill="#16a34a">第 6 个 🍅</text>
    <text x="530" y="207" font-size="12" fill="#64748b">任务：_______________</text>
    <text x="420" y="230" font-size="12" fill="#9ca3af">□ 25分钟</text>
    <text x="530" y="230" font-size="12" fill="#16a34a">✓完成</text>
    <text x="610" y="230" font-size="12" fill="#9ca3af">/ ✗中断</text>
    
    <!-- Row 4 -->
    <rect x="0" y="258" width="340" height="76" fill="#dbeafe" stroke="#93c5fd" rx="6"/>
    <rect x="18" y="274" width="24" height="24" fill="none" stroke="#2563eb" stroke-width="2" rx="4"/>
    <text x="60" y="293" font-size="14" font-weight="bold" fill="#2563eb">第 7 个 🍅</text>
    <text x="170" y="293" font-size="12" fill="#64748b">任务：_______________</text>
    <text x="60" y="316" font-size="12" fill="#9ca3af">□ 25分钟</text>
    <text x="170" y="316" font-size="12" fill="#2563eb">✓完成</text>
    <text x="250" y="316" font-size="12" fill="#9ca3af">/ ✗中断</text>
    
    <rect x="360" y="258" width="340" height="76" fill="#dbeafe" stroke="#93c5fd" rx="6"/>
    <rect x="378" y="274" width="24" height="24" fill="none" stroke="#2563eb" stroke-width="2" rx="4"/>
    <text x="420" y="293" font-size="14" font-weight="bold" fill="#2563eb">第 8 个 🍅</text>
    <text x="530" y="293" font-size="12" fill="#64748b">任务：_______________</text>
    <text x="420" y="316" font-size="12" fill="#9ca3af">□ 25分钟</text>
    <text x="530" y="316" font-size="12" fill="#2563eb">✓完成</text>
    <text x="610" y="316" font-size="12" fill="#9ca3af">/ ✗中断</text>
  </g>
  
  <!-- 底部总结 -->
  <rect x="50" y="442" width="340" height="44" fill="#fef3c7" stroke="#fcd34d" rx="6"/>
  <text x="66" y="462" font-size="14" font-weight="bold" fill="#92400e">🍅 完成：____ / 8 个番茄钟</text>
  <text x="310" y="462" font-size="12" fill="#a16207">今日日期：________</text>
  
  <rect x="410" y="442" width="340" height="44" fill="#fef2f2" stroke="#fecaca" rx="6"/>
  <text x="426" y="462" font-size="13" fill="#dc2626" font-weight="bold">⛔ 中断原因：____________________</text>
  <text x="426" y="480" font-size="11" fill="#9ca3af">（手机/微信/走神/肚子饿/……）</text>
</svg>