<svg xmlns="http://www.w3.org/2000/svg" viewBox="0 0 800 600">
  <defs>
    <style>
      text { font-family: 'Segoe UI', 'PingFang SC', 'Microsoft YaHei', sans-serif; }
    </style>
  </defs>
  <rect width="800" height="600" fill="#ffffff" rx="8"/>
  <rect x="4" y="4" width="792" height="592" fill="none" stroke="#e2e8f0" stroke-width="2" rx="6"/>
  
  <text x="780" y="28" font-size="10" fill="#94a3b8" text-anchor="end">📖 高效学习手册 · 认知节律追踪</text>
  
  <text x="400" y="58" font-size="22" font-weight="bold" fill="#1e3a5f" text-anchor="middle">🔋 7天精力记录表</text>
  <text x="400" y="78" font-size="11" fill="#64748b" text-anchor="middle">每个时段给自己打分：1=😴迷糊  2=有点困  3=一般  4=清醒  5=⚡超清醒</text>
  
  <!-- 表格 -->
  <g transform="translate(36,94)">
    <!-- 表头 -->
    <rect x="0" y="0" width="120" height="34" fill="#1e3a5f" rx="4"/>
    <text x="60" y="22" font-size="12" fill="#ffffff" font-weight="bold" text-anchor="middle">时段</text>
    
    <rect x="126" y="0" width="86" height="34" fill="#3b82f6" rx="4"/>
    <text x="169" y="22" font-size="12" fill="#ffffff" font-weight="bold" text-anchor="middle">周一</text>
    <rect x="218" y="0" width="86" height="34" fill="#3b82f6" rx="4"/>
    <text x="261" y="22" font-size="12" fill="#ffffff" font-weight="bold" text-anchor="middle">周二</text>
    <rect x="310" y="0" width="86" height="34" fill="#3b82f6" rx="4"/>
    <text x="353" y="22" font-size="12" fill="#ffffff" font-weight="bold" text-anchor="middle">周三</text>
    <rect x="402" y="0" width="86" height="34" fill="#3b82f6" rx="4"/>
    <text x="445" y="22" font-size="12" fill="#ffffff" font-weight="bold" text-anchor="middle">周四</text>
    <rect x="494" y="0" width="86" height="34" fill="#3b82f6" rx="4"/>
    <text x="537" y="22" font-size="12" fill="#ffffff" font-weight="bold" text-anchor="middle">周五</text>
    <rect x="586" y="0" width="86" height="34" fill="#3b82f6" rx="4"/>
    <text x="629" y="22" font-size="12" fill="#ffffff" font-weight="bold" text-anchor="middle">周六</text>
    <rect x="678" y="0" width="86" height="34" fill="#3b82f6" rx="4"/>
    <text x="721" y="22" font-size="12" fill="#ffffff" font-weight="bold" text-anchor="middle">周日</text>
    
    <!-- 8行时段 -->
    <g>
      <rect x="0" y="40" width="120" height="40" fill="#f8fafc" stroke="#e2e8f0"/>
      <text x="60" y="65" font-size="11" fill="#1e3a5f" font-weight="bold" text-anchor="middle">6:00-8:00</text>
      <rect x="126" y="40" width="86" height="40" fill="#ffffff" stroke="#e2e8f0"/>
      <rect x="218" y="40" width="86" height="40" fill="#ffffff" stroke="#e2e8f0"/>
      <rect x="310" y="40" width="86" height="40" fill="#ffffff" stroke="#e2e8f0"/>
      <rect x="402" y="40" width="86" height="40" fill="#ffffff" stroke="#e2e8f0"/>
      <rect x="494" y="40" width="86" height="40" fill="#ffffff" stroke="#e2e8f0"/>
      <rect x="586" y="40" width="86" height="40" fill="#ffffff" stroke="#e2e8f0"/>
      <rect x="678" y="40" width="86" height="40" fill="#ffffff" stroke="#e2e8f0"/>
    </g>
    <g>
      <rect x="0" y="84" width="120" height="40" fill="#f8fafc" stroke="#e2e8f0"/>
      <text x="60" y="109" font-size="11" fill="#1e3a5f" font-weight="bold" text-anchor="middle">8:00-10:00</text>
      <rect x="126" y="84" width="86" height="40" fill="#f0f9ff" stroke="#e2e8f0"/>
      <rect x="218" y="84" width="86" height="40" fill="#f0f9ff" stroke="#e2e8f0"/>
      <rect x="310" y="84" width="86" height="40" fill="#f0f9ff" stroke="#e2e8f0"/>
      <rect x="402" y="84" width="86" height="40" fill="#f0f9ff" stroke="#e2e8f0"/>
      <rect x="494" y="84" width="86" height="40" fill="#f0f9ff" stroke="#e2e8f0"/>
      <rect x="586" y="84" width="86" height="40" fill="#f0f9ff" stroke="#e2e8f0"/>
      <rect x="678" y="84" width="86" height="40" fill="#f0f9ff" stroke="#e2e8f0"/>
    </g>
    <g>
      <rect x="0" y="128" width="120" height="40" fill="#f8fafc" stroke="#e2e8f0"/>
      <text x="60" y="153" font-size="11" fill="#1e3a5f" font-weight="bold" text-anchor="middle">10:00-12:00</text>
      <rect x="126" y="128" width="86" height="40" fill="#ffffff" stroke="#e2e8f0"/>
      <rect x="218" y="128" width="86" height="40" fill="#ffffff" stroke="#e2e8f0"/>
      <rect x="310" y="128" width="86" height="40" fill="#ffffff" stroke="#e2e8f0"/>
      <rect x="402" y="128" width="86" height="40" fill="#ffffff" stroke="#e2e8f0"/>
      <rect x="494" y="128" width="86" height="40" fill="#ffffff" stroke="#e2e8f0"/>
      <rect x="586" y="128" width="86" height="40" fill="#ffffff" stroke="#e2e8f0"/>
      <rect x="678" y="128" width="86" height="40" fill="#ffffff" stroke="#e2e8f0"/>
    </g>
    <g>
      <rect x="0" y="172" width="120" height="40" fill="#f8fafc" stroke="#e2e8f0"/>
      <text x="60" y="197" font-size="11" fill="#1e3a5f" font-weight="bold" text-anchor="middle">12:00-14:00</text>
      <rect x="126" y="172" width="86" height="40" fill="#f0f9ff" stroke="#e2e8f0"/>
      <rect x="218" y="172" width="86" height="40" fill="#f0f9ff" stroke="#e2e8f0"/>
      <rect x="310" y="172" width="86" height="40" fill="#f0f9ff" stroke="#e2e8f0"/>
      <rect x="402" y="172" width="86" height="40" fill="#f0f9ff" stroke="#e2e8f0"/>
      <rect x="494" y="172" width="86" height="40" fill="#f0f9ff" stroke="#e2e8f0"/>
      <rect x="586" y="172" width="86" height="40" fill="#f0f9ff" stroke="#e2e8f0"/>
      <rect x="678" y="172" width="86" height="40" fill="#f0f9ff" stroke="#e2e8f0"/>
    </g>
    <g>
      <rect x="0" y="216" width="120" height="40" fill="#f8fafc" stroke="#e2e8f0"/>
      <text x="60" y="241" font-size="11" fill="#1e3a5f" font-weight="bold" text-anchor="middle">14:00-16:00</text>
      <rect x="126" y="216" width="86" height="40" fill="#ffffff" stroke="#e2e8f0"/>
      <rect x="218" y="216" width="86" height="40" fill="#ffffff" stroke="#e2e8f0"/>
      <rect x="310" y="216" width="86" height="40" fill="#ffffff" stroke="#e2e8f0"/>
      <rect x="402" y="216" width="86" height="40" fill="#ffffff" stroke="#e2e8f0"/>
      <rect x="494" y="216" width="86" height="40" fill="#ffffff" stroke="#e2e8f0"/>
      <rect x="586" y="216" width="86" height="40" fill="#ffffff" stroke="#e2e8f0"/>
      <rect x="678" y="216" width="86" height="40" fill="#ffffff" stroke="#e2e8f0"/>
    </g>
    <g>
      <rect x="0" y="260" width="120" height="40" fill="#f8fafc" stroke="#e2e8f0"/>
      <text x="60" y="285" font-size="11" fill="#1e3a5f" font-weight="bold" text-anchor="middle">16:00-18:00</text>
      <rect x="126" y="260" width="86" height="40" fill="#f0f9ff" stroke="#e2e8f0"/>
      <rect x="218" y="260" width="86" height="40" fill="#f0f9ff" stroke="#e2e8f0"/>
      <rect x="310" y="260" width="86" height="40" fill="#f0f9ff" stroke="#e2e8f0"/>
      <rect x="402" y="260" width="86" height="40" fill="#f0f9ff" stroke="#e2e8f0"/>
      <rect x="494" y="260" width="86" height="40" fill="#f0f9ff" stroke="#e2e8f0"/>
      <rect x="586" y="260" width="86" height="40" fill="#f0f9ff" stroke="#e2e8f0"/>
      <rect x="678" y="260" width="86" height="40" fill="#f0f9ff" stroke="#e2e8f0"/>
    </g>
    <g>
      <rect x="0" y="304" width="120" height="40" fill="#f8fafc" stroke="#e2e8f0"/>
      <text x="60" y="329" font-size="11" fill="#1e3a5f" font-weight="bold" text-anchor="middle">18:00-20:00</text>
      <rect x="126" y="304" width="86" height="40" fill="#ffffff" stroke="#e2e8f0"/>
      <rect x="218" y="304" width="86" height="40" fill="#ffffff" stroke="#e2e8f0"/>
      <rect x="310" y="304" width="86" height="40" fill="#ffffff" stroke="#e2e8f0"/>
      <rect x="402" y="304" width="86" height="40" fill="#ffffff" stroke="#e2e8f0"/>
      <rect x="494" y="304" width="86" height="40" fill="#ffffff" stroke="#e2e8f0"/>
      <rect x="586" y="304" width="86" height="40" fill="#ffffff" stroke="#e2e8f0"/>
      <rect x="678" y="304" width="86" height="40" fill="#ffffff" stroke="#e2e8f0"/>
    </g>
    <g>
      <rect x="0" y="348" width="120" height="40" fill="#f8fafc" stroke="#e2e8f0"/>
      <text x="60" y="373" font-size="11" fill="#1e3a5f" font-weight="bold" text-anchor="middle">20:00-22:00</text>
      <rect x="126" y="348" width="86" height="40" fill="#f0f9ff" stroke="#e2e8f0"/>
      <rect x="218" y="348" width="86" height="40" fill="#f0f9ff" stroke="#e2e8f0"/>
      <rect x="310" y="348" width="86" height="40" fill="#f0f9ff" stroke="#e2e8f0"/>
      <rect x="402" y="348" width="86" height="40" fill="#f0f9ff" stroke="#e2e8f0"/>
      <rect x="494" y="348" width="86" height="40" fill="#f0f9ff" stroke="#e2e8f0"/>
      <rect x="586" y="348" width="86" height="40" fill="#f0f9ff" stroke="#e2e8f0"/>
      <rect x="678" y="348" width="86" height="40" fill="#f0f9ff" stroke="#e2e8f0"/>
    </g>
  </g>
  
  <!-- 总结 -->
  <rect x="36" y="498" width="728" height="46" fill="#fef9c3" rx="6" stroke="#fde68a"/>
  <text x="400" y="522" font-size="14" font-weight="bold" fill="#854d0e" text-anchor="middle">📊 我的认知峰值时段（连续3天4-5分的时段）是</text>
  <text x="400" y="540" font-size="13" fill="#854d0e" text-anchor="middle">____:____ 到 ____:____   →   把最重要的学习任务排在这个时段！</text>
  
  <rect x="36" y="552" width="728" height="36" fill="#f8fafc" rx="4" stroke="#e2e8f0"/>
  <text x="400" y="575" font-size="11" fill="#64748b" text-anchor="middle">💡 记一周就能找到你的"黄金时段"，每周都可能有规律。</text>
</svg>