<svg xmlns="http://www.w3.org/2000/svg" viewBox="0 0 800 600" font-family="'Microsoft YaHei', 'PingFang SC', 'Noto Sans SC', sans-serif">
  <defs>
    <filter id="shadow" x="-2%" y="-2%" width="104%" height="104%"><feDropShadow dx="1" dy="2" stdDeviation="3" flood-opacity="0.08"/></filter>
  </defs>
  <rect width="800" height="600" fill="#ffffff" rx="12"/>
  <rect x="16" y="16" width="768" height="568" fill="none" stroke="#e2e8f0" stroke-width="2" rx="8" filter="url(#shadow)"/>
  <!-- Header -->
  <rect x="16" y="16" width="768" height="48" fill="#1e3a5f" rx="8"/>
  <rect x="16" y="40" width="768" height="24" fill="#1e3a5f"/>
  <text x="400" y="47" text-anchor="middle" fill="#ffffff" font-size="18" font-weight="700">card14 ｜ 即时分数记录卡</text>
  <text x="400" y="84" text-anchor="middle" fill="#64748b" font-size="13">方法：即时反馈 · Instant Feedback Scoring</text>
  <!-- Week header -->
  <rect x="40" y="104" width="720" height="34" fill="#f8fafc" rx="4" stroke="#e2e8f0" stroke-width="1"/>
  <text x="100" y="126" fill="#1e3a5f" font-size="14" font-weight="700">第</text>
  <rect x="130" y="112" width="36" height="20" fill="none" stroke="#94a3b8" stroke-width="1" stroke-dasharray="3,3" rx="2"/>
  <text x="180" y="126" fill="#1e3a5f" font-size="14" font-weight="700">周</text>
  <text x="280" y="126" fill="#1e3a5f" font-size="14" font-weight="700">科目：</text>
  <rect x="350" y="112" width="160" height="20" fill="none" stroke="#94a3b8" stroke-width="1" stroke-dasharray="3,3" rx="2"/>
  <text x="560" y="126" fill="#1e3a5f" font-size="13">日 期：______ 至 ______</text>
  <!-- Main table -->
  <rect x="40" y="148" width="720" height="310" fill="none" stroke="#e2e8f0" stroke-width="1" rx="2"/>
  <!-- Header - day columns -->
  <rect x="40" y="148" width="720" height="36" fill="#f1f5f9"/>
  <text x="100" y="170" text-anchor="middle" fill="#1e3a5f" font-size="12" font-weight="700">题组</text>
  <g font-size="11" fill="#1e3a5f" font-weight="600">
    <text x="195" y="170" text-anchor="middle">周一</text>
    <text x="290" y="170" text-anchor="middle">周二</text>
    <text x="385" y="170" text-anchor="middle">周三</text>
    <text x="480" y="170" text-anchor="middle">周四</text>
    <text x="575" y="170" text-anchor="middle">周五</text>
    <text x="670" y="170" text-anchor="middle">周六</text>
    <text x="760" y="170" text-anchor="middle">周日</text>
  </g>
  <!-- Vertical separators -->
  <g stroke="#e2e8f0" stroke-width="1">
    <line x1="150" y1="148" x2="150" y2="458"/>
    <line x1="245" y1="148" x2="245" y2="458"/>
    <line x1="340" y1="148" x2="340" y2="458"/>
    <line x1="435" y1="148" x2="435" y2="458"/>
    <line x1="530" y1="148" x2="530" y2="458"/>
    <line x1="625" y1="148" x2="625" y2="458"/>
    <line x1="720" y1="148" x2="720" y2="458"/>
  </g>
  <!-- 5 rows -->
  <g stroke="#e2e8f0" stroke-width="1" stroke-dasharray="4,4">
    <line x1="40" y1="200" x2="760" y2="200"/>
    <line x1="40" y1="252" x2="760" y2="252"/>
    <line x1="40" y1="304" x2="760" y2="304"/>
    <line x1="40" y1="356" x2="760" y2="356"/>
    <line x1="40" y1="408" x2="760" y2="408"/>
  </g>
  <!-- Row labels -->
  <g font-size="12" fill="#475569" font-weight="600">
    <text x="100" y="228" text-anchor="middle">题组 1</text>
    <text x="100" y="280" text-anchor="middle">题组 2</text>
    <text x="100" y="332" text-anchor="middle">题组 3</text>
    <text x="100" y="384" text-anchor="middle">题组 4</text>
    <text x="100" y="436" text-anchor="middle">题组 5</text>
  </g>
  <!-- Score hints 1-5 -->
  <g font-size="10" fill="#cbd5e1">
    <g>
      <text x="195" y="228" text-anchor="middle">_/5</text><text x="290" y="228" text-anchor="middle">_/5</text>
      <text x="385" y="228" text-anchor="middle">_/5</text><text x="480" y="228" text-anchor="middle">_/5</text>
      <text x="575" y="228" text-anchor="middle">_/5</text><text x="670" y="228" text-anchor="middle">_/5</text>
      <text x="760" y="228" text-anchor="middle">_/5</text>
    </g>
    <g>
      <text x="195" y="280" text-anchor="middle">_/5</text><text x="290" y="280" text-anchor="middle">_/5</text>
      <text x="385" y="280" text-anchor="middle">_/5</text><text x="480" y="280" text-anchor="middle">_/5</text>
      <text x="575" y="280" text-anchor="middle">_/5</text><text x="670" y="280" text-anchor="middle">_/5</text>
      <text x="760" y="280" text-anchor="middle">_/5</text>
    </g>
    <g>
      <text x="195" y="332" text-anchor="middle">_/5</text><text x="290" y="332" text-anchor="middle">_/5</text>
      <text x="385" y="332" text-anchor="middle">_/5</text><text x="480" y="332" text-anchor="middle">_/5</text>
      <text x="575" y="332" text-anchor="middle">_/5</text><text x="670" y="332" text-anchor="middle">_/5</text>
      <text x="760" y="332" text-anchor="middle">_/5</text>
    </g>
    <g>
      <text x="195" y="384" text-anchor="middle">_/5</text><text x="290" y="384" text-anchor="middle">_/5</text>
      <text x="385" y="384" text-anchor="middle">_/5</text><text x="480" y="384" text-anchor="middle">_/5</text>
      <text x="575" y="384" text-anchor="middle">_/5</text><text x="670" y="384" text-anchor="middle">_/5</text>
      <text x="760" y="384" text-anchor="middle">_/5</text>
    </g>
    <g>
      <text x="195" y="436" text-anchor="middle">_/5</text><text x="290" y="436" text-anchor="middle">_/5</text>
      <text x="385" y="436" text-anchor="middle">_/5</text><text x="480" y="436" text-anchor="middle">_/5</text>
      <text x="575" y="436" text-anchor="middle">_/5</text><text x="670" y="436" text-anchor="middle">_/5</text>
      <text x="760" y="436" text-anchor="middle">_/5</text>
    </g>
  </g>
  <text x="100" y="452" text-anchor="middle" fill="#64748b" font-size="10" font-weight="600">日平均</text>
  <g font-size="10" fill="#94a3b8">
    <text x="195" y="452" text-anchor="middle">_._</text>
    <text x="290" y="452" text-anchor="middle">_._</text>
    <text x="385" y="452" text-anchor="middle">_._</text>
    <text x="480" y="452" text-anchor="middle">_._</text>
    <text x="575" y="452" text-anchor="middle">_._</text>
    <text x="670" y="452" text-anchor="middle">_._</text>
    <text x="760" y="452" text-anchor="middle">_._</text>
  </g>
  <!-- Bottom summary -->
  <rect x="40" y="470" width="720" height="56" fill="#eff6ff" rx="4" stroke="#bfdbfe" stroke-width="1"/>
  <text x="56" y="496" fill="#1e40af" font-size="13">📊 本周总结</text>
  <text x="56" y="516" fill="#475569" font-size="12">本周平均分 </text>
  <rect x="160" y="502" width="50" height="18" fill="none" stroke="#94a3b8" stroke-width="1" stroke-dasharray="3,3" rx="2"/>
  <text x="216" y="516" fill="#475569" font-size="12">/5</text>
  <text x="270" y="516" fill="#475569" font-size="12">｜ 最稳科目：</text>
  <rect x="380" y="502" width="100" height="18" fill="none" stroke="#94a3b8" stroke-width="1" stroke-dasharray="3,3" rx="2"/>
  <text x="490" y="516" fill="#475569" font-size="12">｜ 需加强：</text>
  <rect x="580" y="502" width="164" height="18" fill="none" stroke="#94a3b8" stroke-width="1" stroke-dasharray="3,3" rx="2"/>
  <!-- Footer -->
  <text x="400" y="570" text-anchor="middle" fill="#94a3b8" font-size="10">高效学习手册 · 方法工具卡</text>
</svg>