<svg xmlns="http://www.w3.org/2000/svg" viewBox="0 0 800 600" font-family="'Microsoft YaHei', 'PingFang SC', 'Noto Sans SC', sans-serif">
  <defs>
    <filter id="shadow" x="-2%" y="-2%" width="104%" height="104%"><feDropShadow dx="1" dy="2" stdDeviation="3" flood-opacity="0.08"/></filter>
  </defs>
  <rect width="800" height="600" fill="#ffffff" rx="12"/>
  <rect x="16" y="16" width="768" height="568" fill="none" stroke="#e2e8f0" stroke-width="2" rx="8" filter="url(#shadow)"/>
  <!-- Header -->
  <rect x="16" y="16" width="768" height="48" fill="#1e3a5f" rx="8"/>
  <rect x="16" y="40" width="768" height="24" fill="#1e3a5f"/>
  <text x="400" y="47" text-anchor="middle" fill="#ffffff" font-size="18" font-weight="700">card23 ｜ 冲动观察记录卡</text>
  <text x="400" y="84" text-anchor="middle" fill="#64748b" font-size="13">方法：元认知冲动观察 · Impulse Awareness Tracking</text>
  <!-- Date -->
  <rect x="40" y="98" width="720" height="30" fill="#f8fafc" rx="4" stroke="#e2e8f0" stroke-width="1"/>
  <text x="56" y="118" fill="#1e3a5f" font-size="13" font-weight="600">日期：</text>
  <rect x="120" y="105" width="140" height="18" fill="none" stroke="#94a3b8" stroke-width="1" stroke-dasharray="3,3" rx="2"/>
  <text x="330" y="118" fill="#64748b" font-size="12" font-style="italic">📱 记录每一次"想打开手机/切APP"的冲动</text>
  <!-- Table -->
  <rect x="40" y="136" width="720" height="238" fill="none" stroke="#e2e8f0" stroke-width="1" rx="2"/>
  <!-- Header row -->
  <rect x="40" y="136" width="720" height="34" fill="#f1f5f9"/>
  <g font-size="11" fill="#1e3a5f" font-weight="700">
    <text x="78" y="158" text-anchor="middle">时间</text>
    <text x="182" y="158" text-anchor="middle">想打开什么 APP</text>
    <text x="320" y="158" text-anchor="middle">触发场景</text>
    <text x="456" y="158" text-anchor="middle">身体感觉</text>
    <text x="570" y="158" text-anchor="middle">冲动持续</text>
    <text x="676" y="158" text-anchor="middle">结果</text>
  </g>
  <line x1="40" y1="170" x2="760" y2="170" stroke="#e2e8f0" stroke-width="1"/>
  <!-- Vertical lines -->
  <g stroke="#e2e8f0" stroke-width="1">
    <line x1="120" y1="136" x2="120" y2="374"/>
    <line x1="245" y1="136" x2="245" y2="374"/>
    <line x1="396" y1="136" x2="396" y2="374"/>
    <line x1="516" y1="136" x2="516" y2="374"/>
    <line x1="624" y1="136" x2="624" y2="374"/>
  </g>
  <!-- 5 data rows with dash lines -->
  <g stroke="#e2e8f0" stroke-width="1" stroke-dasharray="4,4">
    <line x1="40" y1="206" x2="760" y2="206"/>
    <line x1="40" y1="242" x2="760" y2="242"/>
    <line x1="40" y1="278" x2="760" y2="278"/>
    <line x1="40" y1="314" x2="760" y2="314"/>
    <line x1="40" y1="350" x2="760" y2="350"/>
  </g>
  <!-- Scene tags for col 3 -->
  <g font-size="9" fill="#cbd5e1">
    <text x="270" y="232" text-anchor="middle">无聊/逃避/习惯</text>
    <text x="270" y="268" text-anchor="middle">无聊/逃避/习惯</text>
    <text x="270" y="304" text-anchor="middle">无聊/逃避/习惯</text>
    <text x="270" y="340" text-anchor="middle">无聊/逃避/习惯</text>
    <text x="270" y="370" text-anchor="middle">无聊/逃避/习惯</text>
  </g>
  <!-- Duration hints -->
  <g font-size="9" fill="#cbd5e1">
    <text x="570" y="232" text-anchor="middle">__ 秒</text>
    <text x="570" y="268" text-anchor="middle">__ 秒</text>
    <text x="570" y="304" text-anchor="middle">__ 秒</text>
    <text x="570" y="340" text-anchor="middle">__ 秒</text>
    <text x="570" y="370" text-anchor="middle">__ 秒</text>
  </g>
  <!-- Result pair for each row -->
  <g font-size="9">
    <rect x="632" y="212" width="44" height="12" fill="none" stroke="#dc2626" stroke-width="1" rx="3"/>
    <text x="654" y="221" text-anchor="middle" fill="#dc2626">打开了</text>
    <rect x="682" y="212" width="44" height="12" fill="none" stroke="#16a34a" stroke-width="1" rx="3"/>
    <text x="704" y="221" text-anchor="middle" fill="#16a34a">忍住了</text>
  </g>
  <g font-size="9">
    <rect x="632" y="248" width="44" height="12" fill="none" stroke="#dc2626" stroke-width="1" rx="3"/>
    <text x="654" y="257" text-anchor="middle" fill="#dc2626">打开了</text>
    <rect x="682" y="248" width="44" height="12" fill="none" stroke="#16a34a" stroke-width="1" rx="3"/>
    <text x="704" y="257" text-anchor="middle" fill="#16a34a">忍住了</text>
  </g>
  <g font-size="9">
    <rect x="632" y="284" width="44" height="12" fill="none" stroke="#dc2626" stroke-width="1" rx="3"/>
    <text x="654" y="293" text-anchor="middle" fill="#dc2626">打开了</text>
    <rect x="682" y="284" width="44" height="12" fill="none" stroke="#16a34a" stroke-width="1" rx="3"/>
    <text x="704" y="293" text-anchor="middle" fill="#16a34a">忍住了</text>
  </g>
  <g font-size="9">
    <rect x="632" y="320" width="44" height="12" fill="none" stroke="#dc2626" stroke-width="1" rx="3"/>
    <text x="654" y="329" text-anchor="middle" fill="#dc2626">打开了</text>
    <rect x="682" y="320" width="44" height="12" fill="none" stroke="#16a34a" stroke-width="1" rx="3"/>
    <text x="704" y="329" text-anchor="middle" fill="#16a34a">忍住了</text>
  </g>
  <g font-size="9">
    <rect x="632" y="356" width="44" height="12" fill="none" stroke="#dc2626" stroke-width="1" rx="3"/>
    <text x="654" y="365" text-anchor="middle" fill="#dc2626">打开了</text>
    <rect x="682" y="356" width="44" height="12" fill="none" stroke="#16a34a" stroke-width="1" rx="3"/>
    <text x="704" y="365" text-anchor="middle" fill="#16a34a">忍住了</text>
  </g>
  <!-- Stats area -->
  <rect x="40" y="386" width="720" height="70" fill="#f8fafc" rx="6" stroke="#e2e8f0" stroke-width="1"/>
  <text x="60" y="410" fill="#1e3a5f" font-size="13" font-weight="700">📊 今日统计</text>
  <g font-size="12" fill="#475569">
    <text x="60" y="436">总冲动次数：</text>
    <rect x="160" y="424" width="40" height="16" fill="none" stroke="#94a3b8" stroke-width="1" stroke-dasharray="3,3" rx="2"/>
    <text x="230" y="436">次</text>
    <text x="290" y="436">｜ 忍住：</text>
    <rect x="350" y="424" width="40" height="16" fill="none" stroke="#94a3b8" stroke-width="1" stroke-dasharray="3,3" rx="2"/>
    <text x="420" y="436">次</text>
    <text x="470" y="436">｜ 成功率：</text>
    <rect x="540" y="424" width="50" height="16" fill="none" stroke="#94a3b8" stroke-width="1" stroke-dasharray="3,3" rx="2"/>
    <text x="596" y="436">%</text>
  </g>
  <!-- Bottom insight -->
  <rect x="40" y="468" width="720" height="56" fill="#fef3c7" rx="6" stroke="#fbbf24" stroke-width="1"/>
  <text x="60" y="492" fill="#92400e" font-size="13" font-weight="600">💡 今天我注意到：我的冲动最常出现在</text>
  <rect x="360" y="480" width="240" height="20" fill="none" stroke="#92400e" stroke-width="1.5" stroke-dasharray="4,4" rx="3"/>
  <text x="610" y="492" fill="#92400e" font-size="13" font-weight="600">时候</text>
  <text x="60" y="516" fill="#a16207" font-size="11">（观察冲动，不需要立刻改变 —— 意识到冲动已经是在建立元认知）</text>
  <!-- Footer -->
  <text x="400" y="578" text-anchor="middle" fill="#94a3b8" font-size="10">高效学习手册 · 方法工具卡</text>
</svg>